<mxfile host="app.diagrams.net" modified="2020-04-02T10:25:32.594Z" agent="5.0 (Windows)" etag="fPiDJqMdhD1a0zZc8HYr" version="12.9.6" type="github">
  <diagram id="C5RBs43oDa-KdzZeNtuy" name="Page-1">
    <mxGraphModel dx="866" dy="457" grid="1" gridSize="10" guides="1" tooltips="1" connect="1" arrows="1" fold="1" page="1" pageScale="1" pageWidth="827" pageHeight="1169" math="0" shadow="0">
      <root>
        <mxCell id="WIyWlLk6GJQsqaUBKTNV-0" />
        <mxCell id="WIyWlLk6GJQsqaUBKTNV-1" parent="WIyWlLk6GJQsqaUBKTNV-0" />
        <mxCell id="qi2p8pHKqPYSHHXsWVHH-112" style="edgeStyle=orthogonalEdgeStyle;rounded=0;orthogonalLoop=1;jettySize=auto;html=1;exitX=0.5;exitY=0;exitDx=0;exitDy=0;entryX=-0.012;entryY=0.077;entryDx=0;entryDy=0;entryPerimeter=0;fontSize=12;" parent="WIyWlLk6GJQsqaUBKTNV-1" source="qi2p8pHKqPYSHHXsWVHH-23" target="zkfFHV4jXpPFQw0GAbJ--3" edge="1">
          <mxGeometry relative="1" as="geometry" />
        </mxCell>
        <mxCell id="qi2p8pHKqPYSHHXsWVHH-23" value="&lt;div&gt;&lt;br&gt;&lt;/div&gt;&lt;div&gt;&lt;font size=&quot;1&quot;&gt;&lt;b style=&quot;font-size: 17px&quot;&gt;business_status.php&lt;/b&gt;&lt;/font&gt;&lt;/div&gt;&lt;div&gt;&lt;br&gt;&lt;/div&gt;" style="rounded=1;whiteSpace=wrap;html=1;fontSize=15;" parent="WIyWlLk6GJQsqaUBKTNV-1" vertex="1">
          <mxGeometry x="150" y="550" width="220" height="110" as="geometry" />
        </mxCell>
        <mxCell id="qi2p8pHKqPYSHHXsWVHH-44" value="&lt;div style=&quot;font-size: 18px&quot;&gt;&lt;b&gt;ЛК business.ru&lt;/b&gt;&lt;/div&gt;" style="rounded=1;whiteSpace=wrap;html=1;fontSize=15;" parent="WIyWlLk6GJQsqaUBKTNV-1" vertex="1">
          <mxGeometry x="850" y="970" width="200" height="100" as="geometry" />
        </mxCell>
        <mxCell id="qi2p8pHKqPYSHHXsWVHH-83" value="&lt;div style=&quot;font-size: 26px&quot;&gt;Получение статуса отправки чека&lt;/div&gt;" style="text;html=1;strokeColor=none;fillColor=none;align=center;verticalAlign=middle;whiteSpace=wrap;rounded=0;labelBackgroundColor=#E6E6E6;fontSize=26;fontStyle=1" parent="WIyWlLk6GJQsqaUBKTNV-1" vertex="1">
          <mxGeometry x="70" y="60" width="360" height="20" as="geometry" />
        </mxCell>
        <mxCell id="qi2p8pHKqPYSHHXsWVHH-106" value="" style="endArrow=classic;html=1;fontSize=12;exitX=1;exitY=0.5;exitDx=0;exitDy=0;entryX=-0.017;entryY=0.249;entryDx=0;entryDy=0;entryPerimeter=0;" parent="WIyWlLk6GJQsqaUBKTNV-1" source="zkfFHV4jXpPFQw0GAbJ--1" target="qi2p8pHKqPYSHHXsWVHH-88" edge="1">
          <mxGeometry width="50" height="50" relative="1" as="geometry">
            <mxPoint x="840" y="310" as="sourcePoint" />
            <mxPoint x="890" y="260" as="targetPoint" />
            <Array as="points">
              <mxPoint x="760" y="299" />
              <mxPoint x="760" y="180" />
            </Array>
          </mxGeometry>
        </mxCell>
        <mxCell id="qi2p8pHKqPYSHHXsWVHH-108" value="STATUS&#xa;" style="text;align=left;verticalAlign=top;spacingLeft=4;spacingRight=4;overflow=hidden;rotatable=0;points=[[0,0.5],[1,0.5]];portConstraint=eastwest;rounded=0;shadow=0;html=0;" parent="WIyWlLk6GJQsqaUBKTNV-1" vertex="1">
          <mxGeometry x="490" y="390" width="160" height="26" as="geometry" />
        </mxCell>
        <mxCell id="qi2p8pHKqPYSHHXsWVHH-113" value="STATUS = (200, 300)" style="text;html=1;strokeColor=none;fillColor=none;align=center;verticalAlign=middle;whiteSpace=wrap;rounded=0;labelBackgroundColor=none;fontSize=17;fontStyle=1" parent="WIyWlLk6GJQsqaUBKTNV-1" vertex="1">
          <mxGeometry x="269" y="340" width="171" height="50" as="geometry" />
        </mxCell>
        <mxCell id="qi2p8pHKqPYSHHXsWVHH-115" value="&lt;div&gt;&lt;br&gt;&lt;/div&gt;&lt;div&gt;&lt;font size=&quot;1&quot;&gt;&lt;b style=&quot;font-size: 17px&quot;&gt;business_status.php&lt;/b&gt;&lt;/font&gt;&lt;/div&gt;&lt;div&gt;&lt;br&gt;&lt;/div&gt;&lt;div&gt;pofd_orangedata.falter_checkOFD&lt;br&gt;&lt;/div&gt;" style="rounded=1;whiteSpace=wrap;html=1;fontSize=15;" parent="WIyWlLk6GJQsqaUBKTNV-1" vertex="1">
          <mxGeometry x="450" y="780" width="240" height="110" as="geometry" />
        </mxCell>
        <mxCell id="qi2p8pHKqPYSHHXsWVHH-116" value="" style="endArrow=classic;html=1;fontSize=17;exitX=0.45;exitY=1.036;exitDx=0;exitDy=0;exitPerimeter=0;entryX=0;entryY=0.75;entryDx=0;entryDy=0;" parent="WIyWlLk6GJQsqaUBKTNV-1" source="qi2p8pHKqPYSHHXsWVHH-23" target="qi2p8pHKqPYSHHXsWVHH-115" edge="1">
          <mxGeometry width="50" height="50" relative="1" as="geometry">
            <mxPoint x="470" y="830" as="sourcePoint" />
            <mxPoint x="520" y="780" as="targetPoint" />
            <Array as="points">
              <mxPoint x="248" y="860" />
            </Array>
          </mxGeometry>
        </mxCell>
        <mxCell id="qi2p8pHKqPYSHHXsWVHH-117" value="command_id" style="text;html=1;align=center;verticalAlign=middle;resizable=0;points=[];autosize=1;fontSize=17;fontStyle=1" parent="WIyWlLk6GJQsqaUBKTNV-1" vertex="1">
          <mxGeometry x="289" y="830" width="110" height="30" as="geometry" />
        </mxCell>
        <mxCell id="qi2p8pHKqPYSHHXsWVHH-118" value="" style="endArrow=classic;html=1;fontSize=17;exitX=-0.001;exitY=0.093;exitDx=0;exitDy=0;exitPerimeter=0;entryX=0.25;entryY=1;entryDx=0;entryDy=0;" parent="WIyWlLk6GJQsqaUBKTNV-1" source="qi2p8pHKqPYSHHXsWVHH-115" target="zkfFHV4jXpPFQw0GAbJ--0" edge="1">
          <mxGeometry width="50" height="50" relative="1" as="geometry">
            <mxPoint x="470" y="710" as="sourcePoint" />
            <mxPoint x="520" y="660" as="targetPoint" />
            <Array as="points">
              <mxPoint x="410" y="790" />
              <mxPoint x="410" y="740" />
              <mxPoint x="410" y="620" />
              <mxPoint x="530" y="620" />
            </Array>
          </mxGeometry>
        </mxCell>
        <mxCell id="qi2p8pHKqPYSHHXsWVHH-119" value="&lt;div&gt;&lt;b&gt;if command_id &lt;br&gt;&lt;/b&gt;&lt;/div&gt;&lt;div&gt;&lt;b&gt;is incorrect then&lt;/b&gt;&lt;/div&gt;&lt;div&gt;&lt;b&gt;&lt;br&gt;&lt;/b&gt;&lt;/div&gt;" style="text;html=1;align=center;verticalAlign=middle;resizable=0;points=[];autosize=1;fontSize=17;" parent="WIyWlLk6GJQsqaUBKTNV-1" vertex="1">
          <mxGeometry x="420" y="630" width="140" height="70" as="geometry" />
        </mxCell>
        <mxCell id="qi2p8pHKqPYSHHXsWVHH-120" value="&lt;div style=&quot;font-size: 14px&quot;&gt;&lt;span&gt;&lt;font style=&quot;font-size: 14px&quot;&gt;STATUS=500 &amp;amp; &lt;br&gt;&lt;/font&gt;&lt;/span&gt;&lt;/div&gt;&lt;div style=&quot;font-size: 14px&quot;&gt;&lt;span&gt;&lt;font style=&quot;font-size: 14px&quot;&gt;COMMENTS=&quot;Идентификатор команды = null&quot; &lt;/font&gt;&lt;/span&gt;&lt;br style=&quot;font-size: 14px&quot;&gt;&lt;span&gt;&lt;/span&gt;&lt;/div&gt;&lt;div style=&quot;font-size: 14px&quot;&gt;&lt;span&gt;&lt;/span&gt;&lt;/div&gt;" style="text;html=1;fontSize=14;align=left;labelBackgroundColor=#E6E6E6;labelBorderColor=#000000;" parent="WIyWlLk6GJQsqaUBKTNV-1" vertex="1">
          <mxGeometry x="420" y="690" width="390" height="40" as="geometry" />
        </mxCell>
        <mxCell id="qi2p8pHKqPYSHHXsWVHH-124" value="" style="endArrow=classic;html=1;fontSize=17;exitX=0.161;exitY=1.025;exitDx=0;exitDy=0;exitPerimeter=0;" parent="WIyWlLk6GJQsqaUBKTNV-1" source="qi2p8pHKqPYSHHXsWVHH-115" edge="1">
          <mxGeometry width="50" height="50" relative="1" as="geometry">
            <mxPoint x="530" y="810" as="sourcePoint" />
            <mxPoint x="850" y="1020" as="targetPoint" />
            <Array as="points">
              <mxPoint x="489" y="1020" />
            </Array>
          </mxGeometry>
        </mxCell>
        <mxCell id="qi2p8pHKqPYSHHXsWVHH-125" value="&lt;div&gt;&lt;b&gt;if command_id &lt;br&gt;&lt;/b&gt;&lt;/div&gt;&lt;div&gt;&lt;b&gt;is correct then&lt;/b&gt;&lt;/div&gt;&lt;div&gt;&lt;b&gt;&lt;br&gt;&lt;/b&gt;&lt;/div&gt;" style="text;html=1;align=center;verticalAlign=middle;resizable=0;points=[];autosize=1;fontSize=17;" parent="WIyWlLk6GJQsqaUBKTNV-1" vertex="1">
          <mxGeometry x="540" y="910" width="130" height="70" as="geometry" />
        </mxCell>
        <mxCell id="qi2p8pHKqPYSHHXsWVHH-127" value="&lt;div&gt;&lt;br&gt;&lt;/div&gt;&lt;div&gt;send command_id&lt;/div&gt;&lt;div&gt;&lt;br&gt;&lt;/div&gt;" style="text;html=1;fontSize=14;align=left;labelBackgroundColor=#E6E6E6;labelBorderColor=#000000;" parent="WIyWlLk6GJQsqaUBKTNV-1" vertex="1">
          <mxGeometry x="540" y="950" width="390" height="40" as="geometry" />
        </mxCell>
        <mxCell id="qi2p8pHKqPYSHHXsWVHH-128" value="&lt;div&gt;&lt;br&gt;&lt;/div&gt;&lt;div&gt;&lt;font size=&quot;1&quot;&gt;&lt;b style=&quot;font-size: 17px&quot;&gt;business_status.php&lt;/b&gt;&lt;/font&gt;&lt;/div&gt;&lt;div&gt;&lt;br&gt;&lt;/div&gt;&lt;div&gt;pofd_orangedata.falter_checkOFD&lt;br&gt;&lt;/div&gt;" style="rounded=1;whiteSpace=wrap;html=1;fontSize=15;" parent="WIyWlLk6GJQsqaUBKTNV-1" vertex="1">
          <mxGeometry x="890" y="700" width="240" height="110" as="geometry" />
        </mxCell>
        <mxCell id="qi2p8pHKqPYSHHXsWVHH-129" value="" style="endArrow=classic;html=1;fontSize=17;exitX=0.593;exitY=-0.021;exitDx=0;exitDy=0;exitPerimeter=0;" parent="WIyWlLk6GJQsqaUBKTNV-1" source="qi2p8pHKqPYSHHXsWVHH-44" edge="1">
          <mxGeometry width="50" height="50" relative="1" as="geometry">
            <mxPoint x="920" y="900" as="sourcePoint" />
            <mxPoint x="969" y="813" as="targetPoint" />
          </mxGeometry>
        </mxCell>
        <mxCell id="qi2p8pHKqPYSHHXsWVHH-130" value="&lt;div&gt;&lt;b&gt;status&lt;/b&gt;&lt;/div&gt;" style="text;html=1;align=center;verticalAlign=middle;resizable=0;points=[];autosize=1;fontSize=17;" parent="WIyWlLk6GJQsqaUBKTNV-1" vertex="1">
          <mxGeometry x="900" y="870" width="60" height="30" as="geometry" />
        </mxCell>
        <mxCell id="qi2p8pHKqPYSHHXsWVHH-131" value="" style="endArrow=classic;html=1;fontSize=17;exitX=-0.011;exitY=0.371;exitDx=0;exitDy=0;exitPerimeter=0;entryX=0.5;entryY=1;entryDx=0;entryDy=0;" parent="WIyWlLk6GJQsqaUBKTNV-1" source="qi2p8pHKqPYSHHXsWVHH-128" target="zkfFHV4jXpPFQw0GAbJ--0" edge="1">
          <mxGeometry width="50" height="50" relative="1" as="geometry">
            <mxPoint x="920" y="590" as="sourcePoint" />
            <mxPoint x="970" y="540" as="targetPoint" />
            <Array as="points">
              <mxPoint x="760" y="741" />
              <mxPoint x="760" y="620" />
              <mxPoint x="570" y="620" />
            </Array>
          </mxGeometry>
        </mxCell>
        <mxCell id="qi2p8pHKqPYSHHXsWVHH-132" value="&lt;div&gt;STATUS=300&amp;amp;&lt;/div&gt;&lt;div&gt;case 0: COMMENTS=&quot;Команда принята онлайн сервисом&quot;&lt;/div&gt;&lt;div&gt;case 1: COMMENTS=&quot;Команда передана в приложение&quot;&lt;/div&gt;&lt;div&gt;case 2: COMMENTS=&quot;Команда передана в ФР&quot;&lt;/div&gt;&lt;div&gt;case 3: COMMENTS=&quot;Команда не выполнена&quot;&lt;br&gt;&lt;/div&gt;" style="text;html=1;fontSize=14;align=left;labelBackgroundColor=#E6E6E6;labelBorderColor=#000000;" parent="WIyWlLk6GJQsqaUBKTNV-1" vertex="1">
          <mxGeometry x="590" y="510" width="390" height="40" as="geometry" />
        </mxCell>
        <mxCell id="qi2p8pHKqPYSHHXsWVHH-133" value="&lt;div&gt;&lt;b&gt;if status = (0, 1, 2, 4)&lt;/b&gt;&lt;/div&gt;&lt;div&gt;&lt;b&gt;then&lt;/b&gt;&lt;/div&gt;&lt;div&gt;&lt;b&gt;&lt;br&gt;&lt;/b&gt;&lt;/div&gt;" style="text;html=1;align=center;verticalAlign=middle;resizable=0;points=[];autosize=1;fontSize=17;" parent="WIyWlLk6GJQsqaUBKTNV-1" vertex="1">
          <mxGeometry x="570" y="460" width="180" height="70" as="geometry" />
        </mxCell>
        <mxCell id="qi2p8pHKqPYSHHXsWVHH-134" value="&lt;div&gt;&lt;br&gt;&lt;/div&gt;&lt;div&gt;&lt;font size=&quot;1&quot;&gt;&lt;b style=&quot;font-size: 17px&quot;&gt;business_status.php&lt;/b&gt;&lt;/font&gt;&lt;/div&gt;&lt;div&gt;&lt;br&gt;&lt;/div&gt;&lt;div&gt;pofd_orangedata.fcreate_transaction&lt;br&gt;&lt;/div&gt;" style="rounded=1;whiteSpace=wrap;html=1;fontSize=15;" parent="WIyWlLk6GJQsqaUBKTNV-1" vertex="1">
          <mxGeometry x="1250" y="500" width="260" height="110" as="geometry" />
        </mxCell>
        <mxCell id="qi2p8pHKqPYSHHXsWVHH-135" value="" style="endArrow=classic;html=1;fontSize=17;exitX=1;exitY=0.5;exitDx=0;exitDy=0;entryX=0.913;entryY=1.002;entryDx=0;entryDy=0;entryPerimeter=0;" parent="WIyWlLk6GJQsqaUBKTNV-1" source="qi2p8pHKqPYSHHXsWVHH-44" target="qi2p8pHKqPYSHHXsWVHH-134" edge="1">
          <mxGeometry width="50" height="50" relative="1" as="geometry">
            <mxPoint x="1100" y="860" as="sourcePoint" />
            <mxPoint x="1453" y="610" as="targetPoint" />
            <Array as="points">
              <mxPoint x="1490" y="1020" />
            </Array>
          </mxGeometry>
        </mxCell>
        <mxCell id="qi2p8pHKqPYSHHXsWVHH-136" value="&lt;div&gt;&lt;b&gt;if&amp;nbsp; status = 3 &lt;br&gt;&lt;/b&gt;&lt;/div&gt;&lt;div&gt;&lt;b&gt;then&lt;br&gt;&lt;/b&gt;&lt;/div&gt;&lt;div&gt;&lt;b&gt;&lt;br&gt;&lt;/b&gt;&lt;/div&gt;" style="text;html=1;align=center;verticalAlign=middle;resizable=0;points=[];autosize=1;fontSize=17;" parent="WIyWlLk6GJQsqaUBKTNV-1" vertex="1">
          <mxGeometry x="1080" y="960" width="110" height="70" as="geometry" />
        </mxCell>
        <mxCell id="qi2p8pHKqPYSHHXsWVHH-137" value="&lt;div&gt;&lt;br&gt;&lt;/div&gt;&lt;div&gt;send: &lt;br&gt;&lt;/div&gt;&lt;div&gt;&lt;br&gt;* FN_NUMBER,&lt;/div&gt;&lt;div&gt;* ECR_REGISTRATION_NUMBER,&lt;/div&gt;&lt;div&gt;* FISCAL_DOCUMENT_NUMBER,&lt;/div&gt;&lt;div&gt;* FISCAL_DOCUMENT_ATTRIBUTE&lt;br&gt;&lt;/div&gt;" style="text;html=1;fontSize=14;align=left;labelBackgroundColor=#E6E6E6;labelBorderColor=#000000;" parent="WIyWlLk6GJQsqaUBKTNV-1" vertex="1">
          <mxGeometry x="1220" y="880" width="70" height="120" as="geometry" />
        </mxCell>
        <mxCell id="qi2p8pHKqPYSHHXsWVHH-146" value="&lt;div&gt;* STATUS&lt;br&gt;* FN_NUMBER,&lt;/div&gt;&lt;div&gt;* ECR_REGISTRATION_NUMBER,&lt;/div&gt;&lt;div&gt;* FISCAL_DOCUMENT_NUMBER,&lt;/div&gt;&lt;div&gt;* FISCAL_DOCUMENT_ATTRIBUTE&lt;br&gt;&lt;/div&gt;" style="text;html=1;fontSize=14;align=left;labelBackgroundColor=#E6E6E6;labelBorderColor=#000000;" parent="WIyWlLk6GJQsqaUBKTNV-1" vertex="1">
          <mxGeometry x="1240" y="370" width="70" height="120" as="geometry" />
        </mxCell>
        <mxCell id="qi2p8pHKqPYSHHXsWVHH-141" value="" style="endArrow=classic;html=1;fontSize=17;exitX=0.909;exitY=-0.025;exitDx=0;exitDy=0;exitPerimeter=0;entryX=1;entryY=0.5;entryDx=0;entryDy=0;" parent="WIyWlLk6GJQsqaUBKTNV-1" source="qi2p8pHKqPYSHHXsWVHH-134" target="qi2p8pHKqPYSHHXsWVHH-88" edge="1">
          <mxGeometry width="50" height="50" relative="1" as="geometry">
            <mxPoint x="1160" y="420" as="sourcePoint" />
            <mxPoint x="1486" y="180" as="targetPoint" />
            <Array as="points">
              <mxPoint x="1490" y="185" />
            </Array>
          </mxGeometry>
        </mxCell>
        <mxCell id="qi2p8pHKqPYSHHXsWVHH-148" value="" style="endArrow=classic;html=1;fontSize=17;exitX=0;exitY=0.364;exitDx=0;exitDy=0;exitPerimeter=0;" parent="WIyWlLk6GJQsqaUBKTNV-1" source="qi2p8pHKqPYSHHXsWVHH-134" edge="1">
          <mxGeometry width="50" height="50" relative="1" as="geometry">
            <mxPoint x="1050" y="540" as="sourcePoint" />
            <mxPoint x="650" y="340" as="targetPoint" />
            <Array as="points">
              <mxPoint x="1130" y="540" />
              <mxPoint x="1130" y="460" />
              <mxPoint x="890" y="460" />
              <mxPoint x="810" y="460" />
              <mxPoint x="810" y="340" />
            </Array>
          </mxGeometry>
        </mxCell>
        <mxCell id="qi2p8pHKqPYSHHXsWVHH-149" value="&lt;div&gt;STATUS=3 &amp;amp; &lt;br&gt;&lt;/div&gt;&lt;div&gt;COMMENTS=&quot;Создание транзакции OFD чека &lt;br&gt;&lt;/div&gt;&lt;div&gt;&amp;nbsp;&amp;nbsp;&amp;nbsp;&amp;nbsp;&amp;nbsp;&amp;nbsp;&amp;nbsp;&amp;nbsp;&amp;nbsp;&amp;nbsp;&amp;nbsp;&amp;nbsp;&amp;nbsp;&amp;nbsp;&amp;nbsp;&amp;nbsp;&amp;nbsp;&amp;nbsp;&amp;nbsp;&amp;nbsp;&amp;nbsp; прошло успешно&quot;&lt;/div&gt;" style="text;html=1;fontSize=14;align=left;labelBackgroundColor=#E6E6E6;labelBorderColor=#000000;" parent="WIyWlLk6GJQsqaUBKTNV-1" vertex="1">
          <mxGeometry x="830" y="380" width="70" height="120" as="geometry" />
        </mxCell>
        <mxCell id="qi2p8pHKqPYSHHXsWVHH-86" value="OFD_TRANSACTION&#xa;" style="swimlane;fontStyle=1;align=center;verticalAlign=top;childLayout=stackLayout;horizontal=1;startSize=26;horizontalStack=0;resizeParent=1;resizeLast=0;collapsible=1;marginBottom=0;rounded=0;shadow=0;strokeWidth=1;" parent="WIyWlLk6GJQsqaUBKTNV-1" vertex="1">
          <mxGeometry x="1010" y="120" width="280" height="226" as="geometry">
            <mxRectangle x="230" y="140" width="160" height="26" as="alternateBounds" />
          </mxGeometry>
        </mxCell>
        <mxCell id="qi2p8pHKqPYSHHXsWVHH-87" value="ID" style="text;align=left;verticalAlign=top;spacingLeft=4;spacingRight=4;overflow=hidden;rotatable=0;points=[[0,0.5],[1,0.5]];portConstraint=eastwest;" parent="qi2p8pHKqPYSHHXsWVHH-86" vertex="1">
          <mxGeometry y="26" width="280" height="26" as="geometry" />
        </mxCell>
        <mxCell id="qi2p8pHKqPYSHHXsWVHH-88" value="CHECK_ID" style="text;align=left;verticalAlign=top;spacingLeft=4;spacingRight=4;overflow=hidden;rotatable=0;points=[[0,0.5],[1,0.5]];portConstraint=eastwest;rounded=0;shadow=0;html=0;" parent="qi2p8pHKqPYSHHXsWVHH-86" vertex="1">
          <mxGeometry y="52" width="280" height="26" as="geometry" />
        </mxCell>
        <mxCell id="qi2p8pHKqPYSHHXsWVHH-89" value="STATUS" style="text;align=left;verticalAlign=top;spacingLeft=4;spacingRight=4;overflow=hidden;rotatable=0;points=[[0,0.5],[1,0.5]];portConstraint=eastwest;rounded=0;shadow=0;html=0;" parent="qi2p8pHKqPYSHHXsWVHH-86" vertex="1">
          <mxGeometry y="78" width="280" height="26" as="geometry" />
        </mxCell>
        <mxCell id="qi2p8pHKqPYSHHXsWVHH-90" value="FN_NUMBER" style="text;align=left;verticalAlign=top;spacingLeft=4;spacingRight=4;overflow=hidden;rotatable=0;points=[[0,0.5],[1,0.5]];portConstraint=eastwest;rounded=0;shadow=0;html=0;" parent="qi2p8pHKqPYSHHXsWVHH-86" vertex="1">
          <mxGeometry y="104" width="280" height="26" as="geometry" />
        </mxCell>
        <mxCell id="qi2p8pHKqPYSHHXsWVHH-91" value="ECR_REGISTRATION_NUMBER" style="text;align=left;verticalAlign=top;spacingLeft=4;spacingRight=4;overflow=hidden;rotatable=0;points=[[0,0.5],[1,0.5]];portConstraint=eastwest;rounded=0;shadow=0;html=0;" parent="qi2p8pHKqPYSHHXsWVHH-86" vertex="1">
          <mxGeometry y="130" width="280" height="26" as="geometry" />
        </mxCell>
        <mxCell id="qi2p8pHKqPYSHHXsWVHH-95" value="&amp;nbsp;FISCAL_DOCUMENT_NUMBER" style="text;html=1;align=left;verticalAlign=middle;resizable=0;points=[];autosize=1;fontSize=12;" parent="qi2p8pHKqPYSHHXsWVHH-86" vertex="1">
          <mxGeometry y="156" width="280" height="20" as="geometry" />
        </mxCell>
        <mxCell id="qi2p8pHKqPYSHHXsWVHH-96" value="&amp;nbsp;FISCAL_DOCUMENT_ATTRIBUTE&lt;div&gt;&lt;br&gt;&lt;/div&gt;&lt;div&gt;&lt;br&gt;&lt;/div&gt;" style="text;html=1;align=left;verticalAlign=middle;resizable=0;points=[];autosize=1;fontSize=12;" parent="qi2p8pHKqPYSHHXsWVHH-86" vertex="1">
          <mxGeometry y="176" width="280" height="50" as="geometry" />
        </mxCell>
        <mxCell id="zkfFHV4jXpPFQw0GAbJ--0" value="OFD_CHECK" style="swimlane;fontStyle=1;align=center;verticalAlign=top;childLayout=stackLayout;horizontal=1;startSize=26;horizontalStack=0;resizeParent=1;resizeLast=0;collapsible=1;marginBottom=0;rounded=0;shadow=0;strokeWidth=1;" parent="WIyWlLk6GJQsqaUBKTNV-1" vertex="1">
          <mxGeometry x="490" y="260" width="160" height="160" as="geometry">
            <mxRectangle x="230" y="140" width="160" height="26" as="alternateBounds" />
          </mxGeometry>
        </mxCell>
        <mxCell id="zkfFHV4jXpPFQw0GAbJ--1" value="ID" style="text;align=left;verticalAlign=top;spacingLeft=4;spacingRight=4;overflow=hidden;rotatable=0;points=[[0,0.5],[1,0.5]];portConstraint=eastwest;" parent="zkfFHV4jXpPFQw0GAbJ--0" vertex="1">
          <mxGeometry y="26" width="160" height="26" as="geometry" />
        </mxCell>
        <mxCell id="zkfFHV4jXpPFQw0GAbJ--2" value="DATE_IN" style="text;align=left;verticalAlign=top;spacingLeft=4;spacingRight=4;overflow=hidden;rotatable=0;points=[[0,0.5],[1,0.5]];portConstraint=eastwest;rounded=0;shadow=0;html=0;" parent="zkfFHV4jXpPFQw0GAbJ--0" vertex="1">
          <mxGeometry y="52" width="160" height="26" as="geometry" />
        </mxCell>
        <mxCell id="zkfFHV4jXpPFQw0GAbJ--3" value="COMMENTS" style="text;align=left;verticalAlign=top;spacingLeft=4;spacingRight=4;overflow=hidden;rotatable=0;points=[[0,0.5],[1,0.5]];portConstraint=eastwest;rounded=0;shadow=0;html=0;" parent="zkfFHV4jXpPFQw0GAbJ--0" vertex="1">
          <mxGeometry y="78" width="160" height="26" as="geometry" />
        </mxCell>
        <mxCell id="qi2p8pHKqPYSHHXsWVHH-12" value="COMMAND" style="text;align=left;verticalAlign=top;spacingLeft=4;spacingRight=4;overflow=hidden;rotatable=0;points=[[0,0.5],[1,0.5]];portConstraint=eastwest;rounded=0;shadow=0;html=0;" parent="zkfFHV4jXpPFQw0GAbJ--0" vertex="1">
          <mxGeometry y="104" width="160" height="26" as="geometry" />
        </mxCell>
      </root>
    </mxGraphModel>
  </diagram>
</mxfile>
